<svg aria-hidden="true" style="position: absolute; width: 0; height: 0; overflow: hidden;" version="1.1" xmlns="http://www.w3.org/2000/svg" xmlns:xlink="http://www.w3.org/1999/xlink">
<defs>
<symbol id="icon-caret-down" viewBox="0 0 57 32">
<title>caret-down</title>
<path d="M55.822 1.067c-0.642-0.691-1.546-1.078-2.489-1.067h-49.778c-0.943-0.011-1.847 0.376-2.489 1.067-0.67 0.656-1.053 1.551-1.067 2.489-0.011 0.943 0.376 1.847 1.067 2.489l24.889 24.889c1.383 1.355 3.595 1.355 4.978 0l24.889-24.889c0.691-0.642 1.078-1.546 1.067-2.489-0.013-0.938-0.397-1.832-1.067-2.489z"></path>
</symbol>
<symbol id="icon-cellphone" viewBox="0 0 18 32">
<title>cellphone</title>
<path fill="#fff" style="fill: var(--color1, #fff)" d="M15.474 30.994c0.752 0.016 1.478-0.277 2.010-0.81s0.821-1.261 0.802-2.013v-25.349c0.019-0.752-0.271-1.48-0.802-2.013s-1.257-0.826-2.010-0.81h-12.663c-0.752-0.016-1.478 0.277-2.010 0.81s-0.821 1.26-0.802 2.013v25.349c-0.019 0.752 0.271 1.48 0.802 2.013s1.257 0.826 2.010 0.81h12.663zM9.143 29.817c-0.776 0-1.406-0.629-1.406-1.406s0.629-1.406 1.406-1.406c0.776 0 1.406 0.629 1.406 1.406s-0.629 1.406-1.406 1.406zM5.623 1.714c-0-0.084 0.034-0.164 0.094-0.222s0.142-0.089 0.226-0.086h6.4c0.172-0 0.314 0.136 0.32 0.309v0.091c0 0.084-0.034 0.164-0.094 0.222s-0.142 0.089-0.226 0.086h-6.4c-0.172 0-0.314-0.136-0.32-0.309v-0.091zM1.406 3.52h15.474v22.503h-15.474v-22.503z"></path>
</symbol>
<symbol id="icon-cover-icon-user" viewBox="0 0 22 32">
<title>cover-icon-user</title>
<path fill="#fff" style="fill: var(--color1, #fff)" d="M11.13 32c-0.006 0-0.012 0-0.019 0-4.263 0-8.157-1.578-11.131-4.181l0.020 0.017v-2.792c0-6.147 4.983-11.13 11.13-11.13s11.13 4.983 11.13 11.13v0 2.792c-2.954 2.587-6.848 4.165-11.111 4.165-0.007 0-0.013 0-0.020 0h0.001zM11.13 12.8c-3.535 0-6.4-2.865-6.4-6.4s2.865-6.4 6.4-6.4c3.535 0 6.4 2.865 6.4 6.4v0c0 3.535-2.865 6.4-6.4 6.4v0z"></path>
</symbol>
<symbol id="icon-facebook" viewBox="0 0 32 32">
<title>facebook</title>
<path fill="#fff" style="fill: var(--color1, #fff)" d="M23.975 0h-15.975c-4.419 0.020-7.993 3.605-8 8.025v16c0.034 4.4 3.6 7.955 8 7.975h16c4.419-0.020 7.993-3.605 8-8.025v-16c-0.034-4.41-3.615-7.969-8.025-7.975zM20.283 16h-3.052v9.908h-3.766v-9.908h-2.031v-4.062h1.772v-1.723c-0.079-1.144 0.345-2.266 1.16-3.072s1.942-1.217 3.086-1.125h3.114v3.372h-2.203c-0.357 0-0.837 0.234-0.837 1.022v1.526h3.126l-0.369 4.062z"></path>
</symbol>
<symbol id="icon-instagram" viewBox="0 0 32 32">
<title>instagram</title>
<path fill="#fff" style="fill: var(--color1, #fff)" d="M18.831 13.932c-0.649-0.928-1.711-1.48-2.843-1.48s-2.194 0.552-2.843 1.48c-0.429 0.604-0.662 1.326-0.665 2.068 0 1.937 1.57 3.508 3.508 3.508s3.508-1.57 3.508-3.508c-0.003-0.741-0.235-1.463-0.665-2.068z"></path>
<path fill="#fff" style="fill: var(--color1, #fff)" d="M21.034 13.957c0.28 0.644 0.418 1.341 0.406 2.043 0 3.011-2.441 5.452-5.452 5.452s-5.452-2.441-5.452-5.452c-0.014-0.698 0.125-1.391 0.406-2.031h-3.077v8.185c0.056 1.066 0.915 1.914 1.982 1.957h12.308c1.057-0.055 1.902-0.9 1.957-1.957v-8.197h-3.077z"></path>
<path fill="#fff" style="fill: var(--color1, #fff)" d="M23.188 8.32h-2.942v3.385h3.36v-3.409z"></path>
<path fill="#fff" style="fill: var(--color1, #fff)" d="M23.951 0h-15.926c-4.429 0.007-8.018 3.596-8.025 8.025v16c0.034 4.41 3.615 7.969 8.025 7.975h16c4.419-0.034 7.982-3.63 7.975-8.049v-15.926c-0.027-4.43-3.619-8.011-8.049-8.025zM25.846 13.932v8.222c0 2.039-1.653 3.692-3.692 3.692h-12.308c-2.039 0-3.692-1.653-3.692-3.692v-12.308c0-2.039 1.653-3.692 3.692-3.692h12.308c2.039 0 3.692 1.653 3.692 3.692v4.086z"></path>
</symbol>
<symbol id="icon-line-menu" viewBox="0 0 33 32">
<title>line-menu</title>
<path fill="#283593" style="fill: var(--color2, #283593)" d="M2.764 5.6c-0.726 0.020-1.429-0.255-1.95-0.762s-0.814-1.202-0.814-1.929c-0.040-0.758 0.234-1.499 0.756-2.049s1.249-0.861 2.007-0.86h27.855c1.578 0.039 2.837 1.33 2.836 2.909 0 0.746-0.301 1.46-0.835 1.98s-1.256 0.803-2.001 0.783l-27.855-0.073z"></path>
<path fill="#283593" style="fill: var(--color2, #283593)" d="M30.618 12.465c1.55 0.038 2.798 1.286 2.836 2.836 0 0.746-0.301 1.46-0.835 1.98s-1.256 0.803-2.001 0.783h-27.855c-0.739 0.020-1.454-0.264-1.976-0.787s-0.807-1.238-0.787-1.976c-0.020-0.745 0.263-1.467 0.783-2.001s1.235-0.835 1.98-0.835h27.855z"></path>
<path fill="#283593" style="fill: var(--color2, #283593)" d="M30.618 25.018c0.743-0.020 1.463 0.261 1.996 0.778s0.837 1.228 0.84 1.971c0.001 1.579-1.258 2.87-2.836 2.909h-27.855c-0.759 0.001-1.485-0.31-2.007-0.86s-0.796-1.291-0.756-2.049c-0.016-0.736 0.27-1.447 0.793-1.967s1.235-0.802 1.971-0.782h27.855z"></path>
</symbol>
<symbol id="icon-linkedin" viewBox="0 0 32 32">
<title>linkedin</title>
<path fill="#fff" style="fill: var(--color1, #fff)" d="M23.951 0h-15.926c-4.429 0.007-8.018 3.596-8.025 8.025v16c0.034 4.41 3.615 7.969 8.025 7.975h16c4.419-0.034 7.982-3.63 7.975-8.049v-15.926c-0.027-4.43-3.619-8.011-8.049-8.025zM10.658 25.846h-4.505v-13.157h4.505v13.157zM8.345 10.658c-1.292 0-2.338-1.047-2.338-2.338s1.047-2.338 2.338-2.338c1.291 0 2.338 1.047 2.338 2.338-0.020 1.283-1.055 2.319-2.338 2.338zM25.908 25.846h-3.828v-6.351c0-1.551-0.209-3.532-2.314-3.532s-2.462 1.674-2.462 3.422v6.462h-3.852v-13.157h3.545v1.772h0.111c0.862-1.268 2.352-1.958 3.877-1.797 4.185 0 4.923 2.462 4.923 5.982v7.2z"></path>
</symbol>
<symbol id="icon-logo" viewBox="0 0 175 32">
<title>logo</title>
<path d="M50.357 9.31c0.12-0.010 0.26-0.015 0.401-0.015 1.279 0 2.451 0.457 3.362 1.217l-0.008-0.007c0.816 0.817 1.32 1.945 1.32 3.191 0 0.088-0.002 0.175-0.007 0.261l0.001-0.012v9.297c0 0.735 0.289 1.103 0.88 1.103h1.011v1.786c-0.456 0.242-0.998 0.383-1.572 0.383-0.047 0-0.095-0.001-0.142-0.003l0.007 0c-0.047 0.003-0.101 0.005-0.157 0.005-0.612 0-1.175-0.209-1.622-0.56l0.006 0.004c-0.455-0.377-0.785-0.891-0.928-1.478l-0.004-0.019h-0.118c-0.786 1.317-2.203 2.185-3.824 2.185-0.073 0-0.146-0.002-0.218-0.005l0.010 0c-0.387-0.003-0.764-0.036-1.132-0.098l0.042 0.006c-0.427-0.091-0.804-0.227-1.156-0.406l0.026 0.012c-0.417-0.208-0.773-0.472-1.076-0.787l-0.001-0.001c-0.351-0.385-0.629-0.845-0.806-1.351l-0.008-0.028c-0.184-0.567-0.29-1.219-0.29-1.896 0-0.040 0-0.080 0.001-0.119l-0 0.006c-0.002-0.063-0.004-0.137-0.004-0.211 0-0.942 0.225-1.832 0.623-2.619l-0.015 0.033c0.413-0.74 1.030-1.323 1.775-1.683l0.024-0.010c0.761-0.382 1.644-0.671 2.574-0.82l0.053-0.007c0.944-0.151 2.033-0.238 3.141-0.238 0.082 0 0.164 0 0.246 0.001l-0.012-0v-2.14c0.005-0.064 0.008-0.139 0.008-0.214 0-0.664-0.215-1.279-0.578-1.777l0.006 0.009c-0.457-0.44-1.080-0.712-1.766-0.712-0.099 0-0.198 0.006-0.294 0.017l0.012-0.001c-0.068-0.007-0.146-0.011-0.226-0.011-0.686 0-1.303 0.297-1.729 0.771l-0.002 0.002c-0.377 0.485-0.605 1.103-0.605 1.774 0 0.027 0 0.055 0.001 0.082l-0-0.004v0.381h-2.521c-0.009-0.104-0.013-0.226-0.013-0.348s0.005-0.244 0.014-0.364l-0.001 0.016c-0.006-0.081-0.009-0.175-0.009-0.27 0-1.248 0.551-2.367 1.422-3.127l0.005-0.004c0.977-0.751 2.218-1.203 3.565-1.203 0.109 0 0.217 0.003 0.324 0.009l-0.015-0.001zM52.786 20.248v-1.523c-0.16-0.009-0.346-0.013-0.535-0.013-1.336 0-2.615 0.246-3.793 0.694l0.073-0.024c-0.85 0.387-1.43 1.228-1.43 2.206 0 0.083 0.004 0.166 0.012 0.247l-0.001-0.010c-0.008 0.078-0.012 0.168-0.012 0.26 0 0.631 0.212 1.213 0.569 1.677l-0.005-0.007c0.394 0.37 0.925 0.598 1.51 0.598 0.060 0 0.12-0.002 0.179-0.007l-0.008 0c0.955-0.009 1.81-0.427 2.4-1.087l0.003-0.003c0.649-0.731 1.045-1.698 1.045-2.758 0-0.088-0.003-0.175-0.008-0.261l0.001 0.012z"></path>
<path d="M62.057 24.345h-0.158l-0.355 1.917h-1.956v-22.782h2.626v7.787h0.158c0.276-0.618 0.73-1.115 1.298-1.436l0.015-0.008c0.608-0.323 1.329-0.513 2.094-0.513 0.030 0 0.060 0 0.090 0.001l-0.004-0c1.54 0.013 2.876 0.877 3.561 2.145l0.011 0.022c0.848 1.622 1.345 3.543 1.345 5.58 0 0.31-0.011 0.617-0.034 0.921l0.002-0.041c0 5.804-1.72 8.706-5.134 8.706-0.008 0-0.018 0-0.028 0-1.567 0-2.915-0.933-3.52-2.274l-0.010-0.024zM68.097 18.567v-1.195c0.014-0.194 0.021-0.421 0.021-0.65 0-1.357-0.273-2.65-0.768-3.827l0.024 0.065c-0.395-0.786-1.195-1.316-2.119-1.316-0.040 0-0.080 0.001-0.119 0.003l0.006-0q-2.981 0-2.968 5.896v1.064q0 5.764 2.968 5.778c0.032 0.002 0.069 0.002 0.106 0.002 0.926 0 1.728-0.529 2.12-1.302l0.006-0.014c0.474-1.112 0.75-2.406 0.75-3.765 0-0.26-0.010-0.518-0.030-0.773l0.002 0.034z"></path>
<path d="M83.736 9.691v1.195l-7.314 13.131h7.721v2.245h-11.253v-1.234l7.288-13.039h-6.776v-2.298z"></path>
<path d="M90.157 22.861v3.401h-3.151v-3.401z"></path>
<path d="M99.204 9.31c0.12-0.010 0.26-0.015 0.401-0.015 1.279 0 2.451 0.457 3.362 1.217l-0.008-0.007c0.816 0.817 1.32 1.945 1.32 3.191 0 0.088-0.002 0.175-0.007 0.261l0.001-0.012v9.297c0 0.735 0.289 1.103 0.88 1.103h1.011v1.786c-0.456 0.242-0.998 0.383-1.572 0.383-0.047 0-0.095-0.001-0.142-0.003l0.007 0c-0.021 0.001-0.045 0.001-0.069 0.001-0.61 0-1.171-0.208-1.617-0.557l0.006 0.004c-0.455-0.377-0.785-0.891-0.928-1.478l-0.004-0.019h-0.21c-0.786 1.317-2.203 2.185-3.823 2.185-0.073 0-0.146-0.002-0.218-0.005l0.010 0c-0.387-0.003-0.764-0.036-1.132-0.098l0.042 0.006c-0.432-0.093-0.814-0.229-1.171-0.407l0.029 0.013c-0.411-0.211-0.762-0.474-1.062-0.787l-0.001-0.001c-0.335-0.386-0.596-0.846-0.754-1.352l-0.007-0.027c-0.2-0.59-0.315-1.269-0.315-1.975 0-0.012 0-0.024 0-0.036v0.002c-0.002-0.063-0.004-0.137-0.004-0.211 0-0.942 0.225-1.832 0.623-2.619l-0.015 0.033c0.408-0.743 1.027-1.328 1.775-1.684l0.024-0.010c0.761-0.382 1.644-0.671 2.574-0.82l0.053-0.007c0.944-0.151 2.033-0.238 3.141-0.238 0.082 0 0.164 0 0.246 0.001l-0.012-0v-2.14c0.007-0.079 0.012-0.171 0.012-0.264 0-0.643-0.201-1.239-0.543-1.729l0.006 0.010c-0.457-0.44-1.080-0.712-1.766-0.712-0.099 0-0.198 0.006-0.294 0.017l0.012-0.001c-0.068-0.007-0.146-0.011-0.226-0.011-0.686 0-1.303 0.297-1.729 0.771l-0.002 0.002c-0.377 0.485-0.605 1.103-0.605 1.774 0 0.027 0 0.055 0.001 0.082l-0-0.004v0.381h-2.587c-0.009-0.104-0.013-0.226-0.013-0.348s0.005-0.244 0.014-0.364l-0.001 0.016c-0.006-0.081-0.009-0.175-0.009-0.27 0-1.248 0.551-2.367 1.422-3.127l0.005-0.004c0.976-0.751 2.215-1.203 3.561-1.203 0.11 0 0.22 0.003 0.328 0.009l-0.015-0.001zM101.633 20.248v-1.523c-0.16-0.009-0.347-0.013-0.535-0.013-1.336 0-2.615 0.246-3.793 0.694l0.073-0.024c-0.85 0.387-1.43 1.228-1.43 2.206 0 0.083 0.004 0.166 0.012 0.247l-0.001-0.010c-0.008 0.078-0.012 0.168-0.012 0.26 0 0.631 0.212 1.213 0.569 1.677l-0.005-0.007c0.394 0.37 0.925 0.598 1.51 0.598 0.060 0 0.12-0.002 0.179-0.007l-0.008 0c0.955-0.009 1.81-0.427 2.4-1.087l0.003-0.003c0.648-0.739 1.043-1.714 1.043-2.781 0-0.079-0.002-0.158-0.007-0.237l0 0.011z"></path>
<path d="M118.021 7.012h2.272c0.002 0.052 0.004 0.113 0.004 0.175 0 0.915-0.281 1.764-0.762 2.467l0.010-0.015c-0.475 0.673-1.181 1.156-2 1.335l-0.022 0.004c0.914 0.968 1.475 2.278 1.475 3.718 0 0.078-0.002 0.155-0.005 0.232l0-0.011c0.005 0.089 0.008 0.194 0.008 0.299 0 1.443-0.546 2.758-1.444 3.751l0.004-0.005c-0.937 0.943-2.235 1.527-3.67 1.527-0.067 0-0.134-0.001-0.2-0.004l0.010 0h-1.733c-0.009-0-0.021-0-0.032-0-0.404 0-0.769 0.166-1.032 0.433l-0 0c-0.275 0.263-0.446 0.634-0.446 1.044s0.171 0.78 0.446 1.043l0.001 0c0.257 0.275 0.622 0.447 1.028 0.447 0.013 0 0.025-0 0.038-0l-0.002 0h4.727c0.053-0.003 0.115-0.004 0.177-0.004 1.042 0 1.984 0.429 2.659 1.12l0.001 0.001c0.667 0.704 1.077 1.657 1.077 2.707 0 0.018-0 0.036-0 0.054l0-0.003c0.001 0.034 0.001 0.074 0.001 0.114 0 1.267-0.501 2.417-1.316 3.262l0.001-0.001c-0.854 0.818-2.016 1.322-3.295 1.322-0.102 0-0.203-0.003-0.304-0.010l0.014 0.001h-4.648c-0.074 0.005-0.16 0.008-0.246 0.008-1.083 0-2.066-0.428-2.788-1.125l0.001 0.001c-0.66-0.703-1.066-1.651-1.066-2.695 0-0.045 0.001-0.090 0.002-0.135l-0 0.007c-0.001-0.029-0.001-0.063-0.001-0.097 0-0.774 0.215-1.497 0.589-2.114l-0.010 0.018c0.359-0.598 0.898-1.057 1.541-1.306l0.021-0.007c-0.795-0.493-1.317-1.361-1.317-2.351 0-0.051 0.001-0.101 0.004-0.151l-0 0.007c0.028-1.397 1.009-2.557 2.317-2.859l0.020-0.004c-1.177-0.971-1.922-2.429-1.922-4.061 0-0.077 0.002-0.154 0.005-0.23l-0 0.011c-0.007-0.101-0.010-0.22-0.010-0.339 0-1.449 0.553-2.77 1.459-3.762l-0.004 0.004c0.945-0.922 2.239-1.491 3.666-1.491 0.096 0 0.192 0.003 0.287 0.008l-0.013-0.001c0.010-0 0.022-0 0.034-0 0.863 0 1.674 0.219 2.382 0.604l-0.026-0.013c1.106-0.571 1.883-1.645 2.034-2.91l0.002-0.018zM116.038 25.881h-4.57c-0.037-0.003-0.081-0.004-0.124-0.004-0.515 0-0.981 0.207-1.32 0.543l0-0c-0.303 0.351-0.487 0.812-0.487 1.317 0 0.026 0.001 0.053 0.002 0.079l-0-0.004c-0.001 0.021-0.001 0.046-0.001 0.071 0 0.51 0.195 0.974 0.515 1.323l-0.001-0.001c0.328 0.343 0.789 0.555 1.3 0.555 0.042 0 0.083-0.001 0.124-0.004l-0.006 0h4.57c0 0 0 0 0 0 1.076 0 1.949-0.869 1.956-1.943v-0.001c0.003-0.037 0.004-0.081 0.004-0.124 0-1.001-0.811-1.812-1.812-1.812-0.052 0-0.104 0.002-0.155 0.007l0.007-0zM115.644 12.33c-0.483-0.543-1.184-0.883-1.965-0.883-0.048 0-0.096 0.001-0.143 0.004l0.007-0c-0.046-0.003-0.101-0.005-0.155-0.005-0.775 0-1.466 0.359-1.916 0.919l-0.004 0.005c-0.464 0.638-0.742 1.437-0.742 2.3 0 0.078 0.002 0.155 0.007 0.231l-0.001-0.011c-0.005 0.073-0.008 0.159-0.008 0.245 0 0.865 0.279 1.664 0.751 2.314l-0.008-0.011c0.461 0.543 1.144 0.885 1.906 0.885 0.059 0 0.118-0.002 0.176-0.006l-0.008 0c0.034 0.002 0.074 0.003 0.114 0.003 0.792 0 1.502-0.351 1.984-0.905l0.003-0.003c0.464-0.638 0.742-1.437 0.742-2.3 0-0.078-0.002-0.155-0.007-0.231l0.001 0.011c0.005-0.077 0.008-0.167 0.008-0.257 0-0.865-0.279-1.665-0.752-2.315l0.008 0.011z"></path>
<path d="M128.486 9.31c0.109-0.009 0.236-0.014 0.364-0.014 1.53 0 2.892 0.721 3.764 1.842l0.008 0.011c0.847 1.464 1.346 3.22 1.346 5.094 0 0.292-0.012 0.58-0.036 0.866l0.002-0.037v1.628h-8.982c-0.010 0.154-0.016 0.334-0.016 0.516 0 1.366 0.336 2.653 0.931 3.783l-0.021-0.045c0.548 0.803 1.459 1.323 2.491 1.323 0.085 0 0.168-0.003 0.251-0.010l-0.011 0.001c0.013 0 0.028 0 0.043 0 0.815 0 1.538-0.395 1.988-1.005l0.005-0.007c0.481-0.692 0.768-1.55 0.768-2.476 0-0.085-0.002-0.17-0.007-0.254l0.001 0.012h2.626c0.006 0.101 0.009 0.22 0.009 0.339 0 1.555-0.57 2.977-1.513 4.068l0.007-0.008c-0.929 1.005-2.254 1.633-3.726 1.633-0.075 0-0.149-0.002-0.224-0.005l0.011 0c-0.115 0.009-0.249 0.013-0.385 0.013-1.746 0-3.303-0.805-4.321-2.064l-0.008-0.011c-1.001-1.634-1.594-3.613-1.594-5.73 0-0.294 0.011-0.585 0.034-0.874l-0.002 0.038c-0.020-0.25-0.031-0.542-0.031-0.836 0-2.115 0.588-4.093 1.609-5.78l-0.028 0.050c0.999-1.268 2.536-2.075 4.26-2.075 0.137 0 0.272 0.005 0.406 0.015l-0.018-0.001zM128.486 11.608c-0.056-0.004-0.121-0.006-0.186-0.006-0.952 0-1.795 0.465-2.316 1.18l-0.006 0.008c-0.627 1.035-0.998 2.286-0.998 3.624 0 0.005 0 0.010 0 0.014v-0.001h6.25c0-3.217-0.919-4.819-2.744-4.819z"></path>
<path d="M143.665 9.31c2.731 0 4.11 1.668 4.11 5.003v11.949h-2.626v-11.752c0.010-0.095 0.015-0.206 0.015-0.319 0-0.727-0.232-1.401-0.626-1.95l0.007 0.010c-0.402-0.401-0.956-0.65-1.569-0.65-0.058 0-0.115 0.002-0.172 0.007l0.008-0c-0.922 0.012-1.727 0.498-2.186 1.224l-0.006 0.011c-0.564 0.852-0.9 1.899-0.9 3.024 0 0.1 0.003 0.2 0.008 0.299l-0.001-0.014v10.111h-2.626v-16.571h2.088l0.341 1.917h0.197c0.723-1.377 2.143-2.301 3.779-2.301 0.056 0 0.112 0.001 0.168 0.003l-0.008-0z"></path>
<path d="M156.468 9.31c0.115-0.010 0.248-0.016 0.382-0.016 1.4 0 2.651 0.643 3.472 1.65l0.006 0.008c0.77 1.228 1.227 2.721 1.227 4.321 0 0.198-0.007 0.395-0.021 0.59l0.001-0.026h-2.626c0.010-0.142 0.015-0.308 0.015-0.476 0-0.992-0.194-1.939-0.545-2.804l0.018 0.050c-0.334-0.604-0.968-1.007-1.695-1.007-0.064 0-0.128 0.003-0.191 0.009l0.008-0.001q-2.968 0-2.968 5.764v1.195q0 5.764 2.968 5.778c0.046 0.004 0.1 0.006 0.154 0.006 0.763 0 1.427-0.422 1.771-1.046l0.005-0.010c0.382-0.807 0.605-1.754 0.605-2.752 0-0.15-0.005-0.298-0.015-0.445l0.001 0.020h2.469c0.003 0.076 0.004 0.165 0.004 0.254 0 1.645-0.492 3.174-1.336 4.45l0.019-0.030c-0.782 1.13-2.071 1.861-3.531 1.861-0.102 0-0.203-0.004-0.303-0.011l0.013 0.001c-0.104 0.008-0.225 0.013-0.347 0.013-1.643 0-3.092-0.832-3.949-2.097l-0.011-0.017c-0.851-1.631-1.35-3.562-1.35-5.61 0-0.336 0.013-0.669 0.040-0.999l-0.003 0.043c-0.024-0.289-0.038-0.626-0.038-0.966 0-2.044 0.5-3.972 1.383-5.667l-0.032 0.068c0.876-1.286 2.333-2.119 3.985-2.119 0.146 0 0.29 0.007 0.433 0.019l-0.018-0.001z"></path>
<path d="M175.219 9.691l-4.228 15.757c-0.439 1.805-1.154 3.393-2.108 4.805l0.033-0.052c-0.717 1.059-1.915 1.746-3.273 1.746-0.004 0-0.007 0-0.011 0h0.001c-0.040 0.001-0.087 0.002-0.134 0.002-0.612 0-1.203-0.092-1.76-0.262l0.042 0.011v-1.746h0.906c1.668 0 2.757-1.234 3.283-3.69l-5.082-16.571h2.836l3.664 12.855h0.118l3.099-12.855z"></path>
<path d="M14.063 21.6l1.707-2.626 10.833-16.519h-21.653l5.069 7.747-1.694 2.626-8.325-12.829h31.514l-15.757 24.187-1.694-2.626zM17.451 9.927l-1.707 2.626-10.833 16.506h21.653l-5.069-7.747 1.694-2.626 8.325 12.829h-31.514l15.757-24.174 1.694 2.626z"></path>
</symbol>
<symbol id="icon-mail" viewBox="0 0 43 32">
<title>mail</title>
<path fill="#fff" style="fill: var(--color1, #fff)" d="M21.333 21.333l-5.333-4.622-15.040 12.942c0.58 0.525 1.334 0.816 2.116 0.818h36.516c0.778 0.002 1.527-0.29 2.098-0.818l-15.022-12.942-5.333 4.622z"></path>
<path fill="#fff" style="fill: var(--color1, #fff)" d="M41.707 0.818c-0.58-0.525-1.334-0.816-2.116-0.818h-36.516c-0.781-0.003-1.533 0.296-2.098 0.836l20.356 17.458 20.373-17.476z"></path>
<path fill="#fff" style="fill: var(--color1, #fff)" d="M0 2.667v25.333l14.738-12.516z"></path>
<path fill="#fff" style="fill: var(--color1, #fff)" d="M27.929 15.484l14.738 12.516v-25.333z"></path>
</symbol>
<symbol id="icon-phone" viewBox="0 0 32 32">
<title>phone</title>
<path fill="#fff" style="fill: var(--color1, #fff)" d="M6.4 13.872c2.622 5.014 6.714 9.106 11.728 11.728l3.92-3.904c0.424-0.538 1.173-0.694 1.776-0.368 2.053 0.735 4.22 1.098 6.4 1.072 0.486-0.057 0.972 0.111 1.318 0.458s0.515 0.832 0.458 1.318v6.048c0.057 0.486-0.111 0.972-0.458 1.318s-0.832 0.515-1.318 0.458c-8.018 0.008-15.711-3.173-21.381-8.843s-8.852-13.362-8.843-21.381c-0.057-0.486 0.111-0.972 0.458-1.318s0.832-0.515 1.318-0.458h6.224c0.486-0.057 0.972 0.111 1.318 0.458s0.515 0.832 0.458 1.318c0.005 2.178 0.367 4.34 1.072 6.4 0.142 0.615 0.014 1.262-0.352 1.776l-4.096 3.92z"></path>
</symbol>
<symbol id="icon-pinterest" viewBox="0 0 32 32">
<title>pinterest</title>
<path fill="#fff" style="fill: var(--color1, #fff)" d="M23.975 0h-15.975c-4.419 0.020-7.993 3.605-8 8.025v16c0.034 4.4 3.6 7.955 8 7.975h16c4.419-0.020 7.993-3.605 8-8.025v-16c-0.034-4.41-3.615-7.969-8.025-7.975zM17.6 20.443c-1.117 0.015-2.172-0.513-2.831-1.415 0 0-0.689 2.634-0.837 3.138-0.49 1.37-1.215 2.644-2.142 3.766-0.024 0.092-0.117 0.147-0.209 0.123s-0.147-0.117-0.123-0.209c-0.242-1.446-0.242-2.923 0-4.369 0.222-0.948 1.526-6.252 1.526-6.252-0.256-0.564-0.387-1.177-0.382-1.797 0-1.711 1.009-2.978 2.277-2.978 0.45-0.013 0.884 0.169 1.191 0.499s0.456 0.776 0.409 1.224c-0.224 1.386-0.57 2.749-1.034 4.074-0.142 0.562-0.003 1.158 0.374 1.599s0.944 0.671 1.522 0.617c2.24 0 3.766-2.794 3.766-6.092 0-2.462-1.76-4.394-4.923-4.394-1.514-0.088-2.997 0.45-4.103 1.488s-1.736 2.485-1.743 4.001c-0.043 0.816 0.221 1.62 0.738 2.252 0.193 0.152 0.263 0.412 0.172 0.64 0 0.197-0.172 0.714-0.246 0.911-0.024 0.127-0.107 0.235-0.224 0.291s-0.253 0.053-0.367-0.008c-1.659-0.805-2.641-2.558-2.462-4.394 0-3.249 2.843-7.163 8.455-7.163 4.529 0 7.495 3.175 7.495 6.572 0.074 4.529-2.486 7.877-6.302 7.877z"></path>
</symbol>
<symbol id="icon-sign-out" viewBox="0 0 38 32">
<title>sign-out</title>
<path fill="#283593" style="fill: var(--color2, #283593)" d="M15.68 28.992c-0.035-0.104-0.035-0.216 0-0.32 0-0.096 0-0.176-0.176-0.224s-0.192-0.112-0.192-0.144c0-0.032-0.096 0-0.288 0h-7.968c-1.042 0.016-2.045-0.401-2.768-1.152-0.753-0.757-1.148-1.798-1.088-2.864v-17.232c-0.016-1.042 0.401-2.045 1.152-2.768 0.718-0.711 1.693-1.104 2.704-1.088h7.84c0.179 0.010 0.356-0.047 0.496-0.16 0.135-0.126 0.22-0.296 0.24-0.48 0.040-0.19 0.067-0.382 0.080-0.576 0-0.176 0-0.384 0-0.64s0-0.432 0-0.496c0.014-0.235-0.087-0.462-0.272-0.608-0.139-0.153-0.337-0.24-0.544-0.24h-7.84c-1.877-0.027-3.682 0.719-4.992 2.064-1.345 1.31-2.091 3.115-2.064 4.992v17.232c-0.031 1.878 0.716 3.684 2.064 4.992 1.31 1.345 3.115 2.091 4.992 2.064h7.84c0.179 0.010 0.356-0.047 0.496-0.16 0.142-0.121 0.228-0.294 0.24-0.48 0.040-0.19 0.067-0.382 0.080-0.576 0-0.16 0-0.384 0-0.64s-0.032-0.432-0.032-0.496z"></path>
<path fill="#283593" style="fill: var(--color2, #283593)" d="M37.936 14.576l-13.328-13.328c-0.618-0.589-1.59-0.589-2.208 0-0.31 0.283-0.485 0.684-0.48 1.104v7.056h-10.944c-0.884 0-1.6 0.716-1.6 1.6v9.392c0 0.884 0.716 1.6 1.6 1.6h10.96v7.056c-0.005 0.42 0.17 0.821 0.48 1.104 0.616 0.579 1.576 0.579 2.192 0l13.328-13.328c0.579-0.616 0.579-1.576 0-2.192v-0.064z"></path>
</symbol>
<symbol id="icon-twitter" viewBox="0 0 32 32">
<title>twitter</title>
<path fill="#fff" style="fill: var(--color1, #fff)" d="M23.951 0h-15.926c-4.429 0.007-8.018 3.596-8.025 8.025v16c0.034 4.41 3.615 7.969 8.025 7.975h16c4.419-0.034 7.982-3.63 7.975-8.049v-15.926c-0.027-4.43-3.619-8.011-8.049-8.025zM23.951 11.975v0.529c0 3.072-1.232 6.016-3.42 8.173s-5.151 3.344-8.223 3.298c-2.228 0.008-4.411-0.624-6.289-1.822 0.32 0 0.628 0 0.96 0 1.837 0.016 3.624-0.591 5.071-1.723-1.741-0.021-3.277-1.142-3.828-2.794 0.251 0.049 0.507 0.074 0.763 0.074 0.37 0.003 0.739-0.047 1.095-0.148-1.878-0.391-3.224-2.045-3.225-3.963 0.556 0.316 1.182 0.49 1.822 0.505-1.792-1.153-2.361-3.511-1.292-5.354 2.098 2.522 5.155 4.053 8.431 4.222-0.079-0.301-0.116-0.612-0.111-0.923 0.006-1.080 0.444-2.113 1.216-2.869s1.814-1.172 2.894-1.155c1.126-0.012 2.209 0.432 3.003 1.231 0.914-0.176 1.789-0.514 2.585-0.997-0.314 0.936-0.951 1.73-1.797 2.24 0.811-0.1 1.604-0.32 2.351-0.652-0.542 0.827-1.23 1.548-2.031 2.129h0.025z"></path>
</symbol>
<symbol id="icon-upload" viewBox="0 0 27 32">
<title>upload</title>
<path fill="#ef6c00" style="fill: var(--color3, #ef6c00)" d="M24.16 18.933c-0.086 0.029-0.18 0.029-0.267 0-0.080 0-0.147 0-0.187 0.147s-0.093 0.16-0.12 0.16c-0.027 0 0 0.080 0 0.24v6.6c-0.007 0.877-0.365 1.715-0.994 2.326s-1.476 0.945-2.353 0.927h-14.36c-0.869 0.014-1.704-0.334-2.307-0.96-0.593-0.599-0.92-1.411-0.907-2.253v-6.533c0.009-0.15-0.039-0.297-0.133-0.413-0.105-0.113-0.247-0.184-0.4-0.2-0.158-0.033-0.319-0.056-0.48-0.067h-1c-0.173-0.002-0.338 0.071-0.453 0.2-0.127 0.116-0.2 0.281-0.2 0.453v6.533c-0.022 1.564 0.6 3.069 1.72 4.16 1.087 1.13 2.592 1.762 4.16 1.747h14.36c1.561 0.004 3.058-0.615 4.162-1.718s1.722-2.601 1.718-4.162v-6.533c0.009-0.15-0.039-0.297-0.133-0.413-0.101-0.118-0.245-0.19-0.4-0.2-0.158-0.033-0.319-0.056-0.48-0.067h-0.947v0.027z"></path>
<path fill="#ef6c00" style="fill: var(--color3, #ef6c00)" d="M12.147 0.387l-11.107 11.107c-0.491 0.515-0.491 1.325 0 1.84 0.236 0.258 0.57 0.404 0.92 0.4h5.88v9.133c0 0.736 0.597 1.333 1.333 1.333h7.827c0.736 0 1.333-0.597 1.333-1.333v-9.147h5.88c0.35 0.004 0.684-0.142 0.92-0.4 0.483-0.513 0.483-1.313 0-1.827l-11.16-11.107c-0.513-0.483-1.313-0.483-1.827 0z"></path>
</symbol>
</defs>
</svg>
